# xmcd
#
# Track frame offsets:
#	150
#	26617
#	46714
#	63942
#	87677
#	107437
#	133990
#	154547
#	174484
#	195177
#	212980
#	233545
#	250937
#
# Disc length: 3611 seconds
#
# Revision: 1
# Processed by: cddbd v1.5.2PL0 Copyright (c) Steve Scherf et al.
# Submitted via: EasyCDDAExtractor 16.0.8.1
#
DISCID=a40e190d
DTITLE=BMG ALL STARS - BMG 10 週年紀念
DYEAR=1900
DGENRE=Christian Rock
TTITLE0=訂做一個天堂(大合唱)
TTITLE1=每次醒來(劉德華)
TTITLE2=哎呀呀(鄭伊健)
TTITLE3=愛到無路可退(彭佳慧)
TTITLE4=夢一場空一場痛一場(吳宗憲)
TTITLE5=慶幸(堂娜)
TTITLE6=為愛嘆息(蔡幸娟)
TTITLE7=想著你的人(黎沸揮)
TTITLE8=解玲(裘海正)
TTITLE9=親熱(鍾漢良)
TTITLE10=情冷卻(劉嘉玲)
TTITLE11=來來來(HAPPY 543)
TTITLE12=我的日子有你分享(黎姿)
EXTD=
EXTT0=
EXTT1=
EXTT2=
EXTT3=
EXTT4=
EXTT5=
EXTT6=
EXTT7=
EXTT8=
EXTT9=
EXTT10=
EXTT11=
EXTT12=
PLAYORDER=
